# xmcd
#
# Track frame offsets: 
#        150
#        12524
#        25570
#        38109
#        51306
#        61237
#        73603
#        85817
#        97462
#        110946
#        123492
#        136157
#        148058
#        158937
#        169777
#        182969
#        193811
#        206170
#        218464
#        232217
#        243262
#        255055
#        265840
#        279008
#        291396
#        304440
#        316739
#
# Disc length: 4682 seconds
#
# Revision: 2
# Processed by: cddbd v1.5.2PL0 Copyright (c) Steve Scherf et al.
# Submitted via: ExactAudioCopy v0.99pb5
#
DISCID=9812481b
DTITLE=Hank Williams - No more darkness
DYEAR=2003
DGENRE=Country
TTITLE0=I saw the light
TTITLE1=Calling you
TTITLE2=Six more miles (to the graveyard)
TTITLE3=Mind your own business
TTITLE4=Honky Tonk Blues
TTITLE5=Lovesicj blues
TTITLE6=Lost highway
TTITLE7=Lost on the river
TTITLE8=Too many parties and too many pals
TTITLE9=I'm so lonesome I could cry
TTITLE10=I just don't like this kind of livin'
TTITLE11=Long gone lonesome blues
TTITLE12=Why don't you love me
TTITLE13=Moanin'the blues
TTITLE14=Hey, good lookin
TTITLE15=I can't help it (if I'm still in love with you)
TTITLE16=Cold cold heart
TTITLE17=Half as much
TTITLE18=Ramblin' man
TTITLE19=(I heard that) lonesome whistle
TTITLE20=You win again
TTITLE21=Let's turn back the years
TTITLE22=Wedding bells
TTITLE23=Move it on over
TTITLE24=Jambalaya (on the bayou)
TTITLE25=Howlin' at the moon
TTITLE26=I'll never get out of this world alive
EXTD=YEAR: 2003
EXTT0=
EXTT1=
EXTT2=
EXTT3=
EXTT4=
EXTT5=
EXTT6=
EXTT7=
EXTT8=
EXTT9=
EXTT10=
EXTT11=
EXTT12=
EXTT13=
EXTT14=
EXTT15=
EXTT16=
EXTT17=
EXTT18=
EXTT19=
EXTT20=
EXTT21=
EXTT22=
EXTT23=
EXTT24=
EXTT25=
EXTT26=
PLAYORDER=
